<mxfile host="app.diagrams.net" modified="2021-08-02T05:59:11.966Z" agent="5.0 (Windows NT 10.0; Win64; x64) AppleWebKit/537.36 (KHTML, like Gecko) Chrome/92.0.4515.107 Safari/537.36 Edg/92.0.902.62" etag="qFOwVYA5C82KuAyJoOpv" version="14.9.3" type="github">
  <diagram id="Ulh9fFxD05v9rUo_ZkGh" name="Page-1">
    <mxGraphModel dx="2724" dy="563" grid="1" gridSize="10" guides="1" tooltips="1" connect="1" arrows="1" fold="1" page="1" pageScale="1" pageWidth="850" pageHeight="1100" background="#F1FAEE" math="0" shadow="0">
      <root>
        <mxCell id="0" />
        <mxCell id="1" parent="0" />
        <mxCell id="7dvW86jji2DdW-ILQc1R-29" value="Fact&amp;nbsp;table" style="whiteSpace=wrap;html=1;align=center;fillColor=#A8DADC;strokeColor=#457B9D;fontColor=#1D3557;rounded=1;fontStyle=1;swimlaneFillColor=#ffffff;startSize=30;" parent="1" vertex="1">
          <mxGeometry x="470" y="190" width="100" height="40" as="geometry" />
        </mxCell>
        <mxCell id="ISjqVNkL_cP0iht_eHrK-1" value="Fact Table" style="shape=table;startSize=30;container=1;collapsible=0;childLayout=tableLayout;fixedRows=1;rowLines=0;fontStyle=1;align=center;pointerEvents=1;fillColor=#A8DADC;strokeColor=#457B9D;rounded=1;swimlaneFillColor=#ffffff;fontColor=#1D3557;" parent="1" vertex="1">
          <mxGeometry x="-1310" y="110" width="260" height="200" as="geometry" />
        </mxCell>
        <mxCell id="ISjqVNkL_cP0iht_eHrK-5" value="" style="shape=partialRectangle;html=1;whiteSpace=wrap;collapsible=0;dropTarget=0;pointerEvents=1;fillColor=none;top=0;left=0;bottom=0;right=0;points=[[0,0.5],[1,0.5]];portConstraint=eastwest;strokeColor=#457B9D;fontColor=#1D3557;rounded=1;" parent="ISjqVNkL_cP0iht_eHrK-1" vertex="1">
          <mxGeometry y="30" width="260" height="30" as="geometry" />
        </mxCell>
        <mxCell id="ISjqVNkL_cP0iht_eHrK-6" value="1" style="shape=partialRectangle;html=1;whiteSpace=wrap;connectable=0;fillColor=none;top=0;left=0;bottom=0;right=0;overflow=hidden;pointerEvents=1;strokeColor=#457B9D;fontColor=#1D3557;rounded=1;" parent="ISjqVNkL_cP0iht_eHrK-5" vertex="1">
          <mxGeometry width="58" height="30" as="geometry" />
        </mxCell>
        <mxCell id="ISjqVNkL_cP0iht_eHrK-7" value="Store Address (FK)" style="shape=partialRectangle;html=1;whiteSpace=wrap;connectable=0;fillColor=none;top=0;left=0;bottom=0;right=0;align=left;spacingLeft=6;overflow=hidden;pointerEvents=1;strokeColor=#457B9D;fontColor=#1D3557;rounded=1;" parent="ISjqVNkL_cP0iht_eHrK-5" vertex="1">
          <mxGeometry x="58" width="202" height="30" as="geometry" />
        </mxCell>
        <mxCell id="ISjqVNkL_cP0iht_eHrK-8" value="" style="shape=partialRectangle;html=1;whiteSpace=wrap;collapsible=0;dropTarget=0;pointerEvents=1;fillColor=none;top=0;left=0;bottom=0;right=0;points=[[0,0.5],[1,0.5]];portConstraint=eastwest;strokeColor=#457B9D;fontColor=#1D3557;rounded=1;" parent="ISjqVNkL_cP0iht_eHrK-1" vertex="1">
          <mxGeometry y="60" width="260" height="30" as="geometry" />
        </mxCell>
        <mxCell id="ISjqVNkL_cP0iht_eHrK-9" value="2" style="shape=partialRectangle;html=1;whiteSpace=wrap;connectable=0;fillColor=none;top=0;left=0;bottom=0;right=0;overflow=hidden;pointerEvents=1;strokeColor=#457B9D;fontColor=#1D3557;rounded=1;" parent="ISjqVNkL_cP0iht_eHrK-8" vertex="1">
          <mxGeometry width="58" height="30" as="geometry" />
        </mxCell>
        <mxCell id="ISjqVNkL_cP0iht_eHrK-10" value="Product Price (FK)" style="shape=partialRectangle;html=1;whiteSpace=wrap;connectable=0;fillColor=none;top=0;left=0;bottom=0;right=0;align=left;spacingLeft=6;overflow=hidden;pointerEvents=1;strokeColor=#457B9D;fontColor=#1D3557;rounded=1;" parent="ISjqVNkL_cP0iht_eHrK-8" vertex="1">
          <mxGeometry x="58" width="202" height="30" as="geometry" />
        </mxCell>
        <mxCell id="ISjqVNkL_cP0iht_eHrK-22" value="3" style="shape=partialRectangle;html=1;whiteSpace=wrap;connectable=0;fillColor=none;top=0;left=0;bottom=0;right=0;overflow=hidden;pointerEvents=1;strokeColor=#457B9D;fontColor=#1D3557;rounded=1;" parent="1" vertex="1">
          <mxGeometry x="-1300" y="210" width="40" height="30" as="geometry" />
        </mxCell>
        <mxCell id="ISjqVNkL_cP0iht_eHrK-24" value="Product Strain (FK)" style="shape=partialRectangle;html=1;whiteSpace=wrap;connectable=0;fillColor=none;top=0;left=0;bottom=0;right=0;align=left;spacingLeft=6;overflow=hidden;pointerEvents=1;strokeColor=#457B9D;fontColor=#1D3557;rounded=1;" parent="1" vertex="1">
          <mxGeometry x="-1252" y="210" width="202" height="30" as="geometry" />
        </mxCell>
        <mxCell id="ISjqVNkL_cP0iht_eHrK-25" value="Store Product (FK)" style="shape=partialRectangle;html=1;whiteSpace=wrap;connectable=0;fillColor=none;top=0;left=0;bottom=0;right=0;align=left;spacingLeft=6;overflow=hidden;pointerEvents=1;strokeColor=#457B9D;fontColor=#1D3557;rounded=1;" parent="1" vertex="1">
          <mxGeometry x="-1252" y="250" width="202" height="30" as="geometry" />
        </mxCell>
        <mxCell id="ISjqVNkL_cP0iht_eHrK-28" value="4" style="shape=partialRectangle;html=1;whiteSpace=wrap;connectable=0;fillColor=none;top=0;left=0;bottom=0;right=0;overflow=hidden;pointerEvents=1;strokeColor=#457B9D;fontColor=#1D3557;rounded=1;" parent="1" vertex="1">
          <mxGeometry x="-1300" y="250" width="40" height="30" as="geometry" />
        </mxCell>
        <mxCell id="ISjqVNkL_cP0iht_eHrK-29" value="Table" style="shape=table;startSize=30;container=1;collapsible=0;childLayout=tableLayout;fixedRows=1;rowLines=0;fontStyle=1;align=center;pointerEvents=1;rounded=1;fontColor=#1D3557;strokeColor=#457B9D;fillColor=#A8DADC;swimlaneFillColor=#ffffff;" parent="1" vertex="1">
          <mxGeometry x="-1630" y="20" width="190" height="240" as="geometry" />
        </mxCell>
        <mxCell id="ISjqVNkL_cP0iht_eHrK-30" value="" style="shape=partialRectangle;html=1;whiteSpace=wrap;collapsible=0;dropTarget=0;pointerEvents=1;fillColor=none;top=0;left=0;bottom=1;right=0;points=[[0,0.5],[1,0.5]];portConstraint=eastwest;" parent="ISjqVNkL_cP0iht_eHrK-29" vertex="1">
          <mxGeometry y="30" width="190" height="30" as="geometry" />
        </mxCell>
        <mxCell id="ISjqVNkL_cP0iht_eHrK-31" value="1" style="shape=partialRectangle;html=1;whiteSpace=wrap;connectable=0;fillColor=none;top=0;left=0;bottom=0;right=0;overflow=hidden;pointerEvents=1;" parent="ISjqVNkL_cP0iht_eHrK-30" vertex="1">
          <mxGeometry width="42" height="30" as="geometry" />
        </mxCell>
        <mxCell id="ISjqVNkL_cP0iht_eHrK-32" value="Store Address (PK)" style="shape=partialRectangle;html=1;whiteSpace=wrap;connectable=0;fillColor=none;top=0;left=0;bottom=0;right=0;align=left;spacingLeft=6;overflow=hidden;pointerEvents=1;" parent="ISjqVNkL_cP0iht_eHrK-30" vertex="1">
          <mxGeometry x="42" width="148" height="30" as="geometry" />
        </mxCell>
        <mxCell id="ISjqVNkL_cP0iht_eHrK-33" value="" style="shape=partialRectangle;html=1;whiteSpace=wrap;collapsible=0;dropTarget=0;pointerEvents=1;fillColor=none;top=0;left=0;bottom=0;right=0;points=[[0,0.5],[1,0.5]];portConstraint=eastwest;" parent="ISjqVNkL_cP0iht_eHrK-29" vertex="1">
          <mxGeometry y="60" width="190" height="20" as="geometry" />
        </mxCell>
        <mxCell id="ISjqVNkL_cP0iht_eHrK-34" value="2" style="shape=partialRectangle;html=1;whiteSpace=wrap;connectable=0;fillColor=none;top=0;left=0;bottom=0;right=0;overflow=hidden;pointerEvents=1;" parent="ISjqVNkL_cP0iht_eHrK-33" vertex="1">
          <mxGeometry width="42" height="20" as="geometry" />
        </mxCell>
        <mxCell id="ISjqVNkL_cP0iht_eHrK-35" value="Store Name" style="shape=partialRectangle;html=1;whiteSpace=wrap;connectable=0;fillColor=none;top=0;left=0;bottom=0;right=0;align=left;spacingLeft=6;overflow=hidden;pointerEvents=1;" parent="ISjqVNkL_cP0iht_eHrK-33" vertex="1">
          <mxGeometry x="42" width="148" height="20" as="geometry" />
        </mxCell>
        <mxCell id="ISjqVNkL_cP0iht_eHrK-36" value="" style="shape=partialRectangle;html=1;whiteSpace=wrap;collapsible=0;dropTarget=0;pointerEvents=1;fillColor=none;top=0;left=0;bottom=0;right=0;points=[[0,0.5],[1,0.5]];portConstraint=eastwest;" parent="ISjqVNkL_cP0iht_eHrK-29" vertex="1">
          <mxGeometry y="80" width="190" height="30" as="geometry" />
        </mxCell>
        <mxCell id="ISjqVNkL_cP0iht_eHrK-37" value="3" style="shape=partialRectangle;html=1;whiteSpace=wrap;connectable=0;fillColor=none;top=0;left=0;bottom=0;right=0;overflow=hidden;pointerEvents=1;" parent="ISjqVNkL_cP0iht_eHrK-36" vertex="1">
          <mxGeometry width="42" height="30" as="geometry" />
        </mxCell>
        <mxCell id="ISjqVNkL_cP0iht_eHrK-38" value="Store City" style="shape=partialRectangle;html=1;whiteSpace=wrap;connectable=0;fillColor=none;top=0;left=0;bottom=0;right=0;align=left;spacingLeft=6;overflow=hidden;pointerEvents=1;" parent="ISjqVNkL_cP0iht_eHrK-36" vertex="1">
          <mxGeometry x="42" width="148" height="30" as="geometry" />
        </mxCell>
        <mxCell id="ISjqVNkL_cP0iht_eHrK-39" value="Table" style="shape=table;startSize=30;container=1;collapsible=0;childLayout=tableLayout;fixedRows=1;rowLines=0;fontStyle=1;align=center;pointerEvents=1;rounded=1;fontColor=#1D3557;strokeColor=#457B9D;fillColor=#A8DADC;swimlaneFillColor=#ffffff;" parent="1" vertex="1">
          <mxGeometry x="-1630" y="360" width="190" height="200" as="geometry" />
        </mxCell>
        <mxCell id="ISjqVNkL_cP0iht_eHrK-40" value="" style="shape=partialRectangle;html=1;whiteSpace=wrap;collapsible=0;dropTarget=0;pointerEvents=1;fillColor=none;top=0;left=0;bottom=1;right=0;points=[[0,0.5],[1,0.5]];portConstraint=eastwest;" parent="ISjqVNkL_cP0iht_eHrK-39" vertex="1">
          <mxGeometry y="30" width="190" height="30" as="geometry" />
        </mxCell>
        <mxCell id="ISjqVNkL_cP0iht_eHrK-41" value="1" style="shape=partialRectangle;html=1;whiteSpace=wrap;connectable=0;fillColor=none;top=0;left=0;bottom=0;right=0;overflow=hidden;pointerEvents=1;" parent="ISjqVNkL_cP0iht_eHrK-40" vertex="1">
          <mxGeometry width="42" height="30" as="geometry" />
        </mxCell>
        <mxCell id="ISjqVNkL_cP0iht_eHrK-42" value="Product Price&amp;nbsp; (PK)" style="shape=partialRectangle;html=1;whiteSpace=wrap;connectable=0;fillColor=none;top=0;left=0;bottom=0;right=0;align=left;spacingLeft=6;overflow=hidden;pointerEvents=1;" parent="ISjqVNkL_cP0iht_eHrK-40" vertex="1">
          <mxGeometry x="42" width="148" height="30" as="geometry" />
        </mxCell>
        <mxCell id="ISjqVNkL_cP0iht_eHrK-43" value="" style="shape=partialRectangle;html=1;whiteSpace=wrap;collapsible=0;dropTarget=0;pointerEvents=1;fillColor=none;top=0;left=0;bottom=0;right=0;points=[[0,0.5],[1,0.5]];portConstraint=eastwest;" parent="ISjqVNkL_cP0iht_eHrK-39" vertex="1">
          <mxGeometry y="60" width="190" height="30" as="geometry" />
        </mxCell>
        <mxCell id="ISjqVNkL_cP0iht_eHrK-44" value="2" style="shape=partialRectangle;html=1;whiteSpace=wrap;connectable=0;fillColor=none;top=0;left=0;bottom=0;right=0;overflow=hidden;pointerEvents=1;" parent="ISjqVNkL_cP0iht_eHrK-43" vertex="1">
          <mxGeometry width="42" height="30" as="geometry" />
        </mxCell>
        <mxCell id="ISjqVNkL_cP0iht_eHrK-45" value="Price Percentage" style="shape=partialRectangle;html=1;whiteSpace=wrap;connectable=0;fillColor=none;top=0;left=0;bottom=0;right=0;align=left;spacingLeft=6;overflow=hidden;pointerEvents=1;" parent="ISjqVNkL_cP0iht_eHrK-43" vertex="1">
          <mxGeometry x="42" width="148" height="30" as="geometry" />
        </mxCell>
        <mxCell id="ISjqVNkL_cP0iht_eHrK-46" value="" style="shape=partialRectangle;html=1;whiteSpace=wrap;collapsible=0;dropTarget=0;pointerEvents=1;fillColor=none;top=0;left=0;bottom=0;right=0;points=[[0,0.5],[1,0.5]];portConstraint=eastwest;" parent="ISjqVNkL_cP0iht_eHrK-39" vertex="1">
          <mxGeometry y="90" width="190" height="30" as="geometry" />
        </mxCell>
        <mxCell id="ISjqVNkL_cP0iht_eHrK-47" value="3" style="shape=partialRectangle;html=1;whiteSpace=wrap;connectable=0;fillColor=none;top=0;left=0;bottom=0;right=0;overflow=hidden;pointerEvents=1;" parent="ISjqVNkL_cP0iht_eHrK-46" vertex="1">
          <mxGeometry width="42" height="30" as="geometry" />
        </mxCell>
        <mxCell id="ISjqVNkL_cP0iht_eHrK-48" value="Unit" style="shape=partialRectangle;html=1;whiteSpace=wrap;connectable=0;fillColor=none;top=0;left=0;bottom=0;right=0;align=left;spacingLeft=6;overflow=hidden;pointerEvents=1;" parent="ISjqVNkL_cP0iht_eHrK-46" vertex="1">
          <mxGeometry x="42" width="148" height="30" as="geometry" />
        </mxCell>
        <mxCell id="ISjqVNkL_cP0iht_eHrK-49" value="Table" style="shape=table;startSize=30;container=1;collapsible=0;childLayout=tableLayout;fixedRows=1;rowLines=0;fontStyle=1;align=center;pointerEvents=1;rounded=1;fontColor=#1D3557;strokeColor=#457B9D;fillColor=#A8DADC;swimlaneFillColor=#ffffff;" parent="1" vertex="1">
          <mxGeometry x="-880" y="340" width="180" height="220" as="geometry" />
        </mxCell>
        <mxCell id="ISjqVNkL_cP0iht_eHrK-50" value="" style="shape=partialRectangle;html=1;whiteSpace=wrap;collapsible=0;dropTarget=0;pointerEvents=1;fillColor=none;top=0;left=0;bottom=1;right=0;points=[[0,0.5],[1,0.5]];portConstraint=eastwest;" parent="ISjqVNkL_cP0iht_eHrK-49" vertex="1">
          <mxGeometry y="30" width="180" height="30" as="geometry" />
        </mxCell>
        <mxCell id="ISjqVNkL_cP0iht_eHrK-51" value="1" style="shape=partialRectangle;html=1;whiteSpace=wrap;connectable=0;fillColor=none;top=0;left=0;bottom=0;right=0;overflow=hidden;pointerEvents=1;" parent="ISjqVNkL_cP0iht_eHrK-50" vertex="1">
          <mxGeometry width="40" height="30" as="geometry" />
        </mxCell>
        <mxCell id="ISjqVNkL_cP0iht_eHrK-52" value="Product Strain (PK)" style="shape=partialRectangle;html=1;whiteSpace=wrap;connectable=0;fillColor=none;top=0;left=0;bottom=0;right=0;align=left;spacingLeft=6;overflow=hidden;pointerEvents=1;" parent="ISjqVNkL_cP0iht_eHrK-50" vertex="1">
          <mxGeometry x="40" width="140" height="30" as="geometry" />
        </mxCell>
        <mxCell id="ISjqVNkL_cP0iht_eHrK-53" value="" style="shape=partialRectangle;html=1;whiteSpace=wrap;collapsible=0;dropTarget=0;pointerEvents=1;fillColor=none;top=0;left=0;bottom=0;right=0;points=[[0,0.5],[1,0.5]];portConstraint=eastwest;" parent="ISjqVNkL_cP0iht_eHrK-49" vertex="1">
          <mxGeometry y="60" width="180" height="30" as="geometry" />
        </mxCell>
        <mxCell id="ISjqVNkL_cP0iht_eHrK-54" value="2" style="shape=partialRectangle;html=1;whiteSpace=wrap;connectable=0;fillColor=none;top=0;left=0;bottom=0;right=0;overflow=hidden;pointerEvents=1;" parent="ISjqVNkL_cP0iht_eHrK-53" vertex="1">
          <mxGeometry width="40" height="30" as="geometry" />
        </mxCell>
        <mxCell id="ISjqVNkL_cP0iht_eHrK-55" value="Strain Rating" style="shape=partialRectangle;html=1;whiteSpace=wrap;connectable=0;fillColor=none;top=0;left=0;bottom=0;right=0;align=left;spacingLeft=6;overflow=hidden;pointerEvents=1;" parent="ISjqVNkL_cP0iht_eHrK-53" vertex="1">
          <mxGeometry x="40" width="140" height="30" as="geometry" />
        </mxCell>
        <mxCell id="ISjqVNkL_cP0iht_eHrK-56" value="" style="shape=partialRectangle;html=1;whiteSpace=wrap;collapsible=0;dropTarget=0;pointerEvents=1;fillColor=none;top=0;left=0;bottom=0;right=0;points=[[0,0.5],[1,0.5]];portConstraint=eastwest;" parent="ISjqVNkL_cP0iht_eHrK-49" vertex="1">
          <mxGeometry y="90" width="180" height="30" as="geometry" />
        </mxCell>
        <mxCell id="ISjqVNkL_cP0iht_eHrK-57" value="3" style="shape=partialRectangle;html=1;whiteSpace=wrap;connectable=0;fillColor=none;top=0;left=0;bottom=0;right=0;overflow=hidden;pointerEvents=1;" parent="ISjqVNkL_cP0iht_eHrK-56" vertex="1">
          <mxGeometry width="40" height="30" as="geometry" />
        </mxCell>
        <mxCell id="ISjqVNkL_cP0iht_eHrK-58" value="Strain THC min" style="shape=partialRectangle;html=1;whiteSpace=wrap;connectable=0;fillColor=none;top=0;left=0;bottom=0;right=0;align=left;spacingLeft=6;overflow=hidden;pointerEvents=1;" parent="ISjqVNkL_cP0iht_eHrK-56" vertex="1">
          <mxGeometry x="40" width="140" height="30" as="geometry" />
        </mxCell>
        <mxCell id="ISjqVNkL_cP0iht_eHrK-59" value="Table" style="shape=table;startSize=30;container=1;collapsible=0;childLayout=tableLayout;fixedRows=1;rowLines=0;fontStyle=1;align=center;pointerEvents=1;rounded=1;fontColor=#1D3557;strokeColor=#457B9D;fillColor=#A8DADC;swimlaneFillColor=#ffffff;" parent="1" vertex="1">
          <mxGeometry x="-900" y="20" width="180" height="210" as="geometry" />
        </mxCell>
        <mxCell id="ISjqVNkL_cP0iht_eHrK-60" value="" style="shape=partialRectangle;html=1;whiteSpace=wrap;collapsible=0;dropTarget=0;pointerEvents=1;fillColor=none;top=0;left=0;bottom=1;right=0;points=[[0,0.5],[1,0.5]];portConstraint=eastwest;" parent="ISjqVNkL_cP0iht_eHrK-59" vertex="1">
          <mxGeometry y="30" width="180" height="30" as="geometry" />
        </mxCell>
        <mxCell id="ISjqVNkL_cP0iht_eHrK-61" value="1" style="shape=partialRectangle;html=1;whiteSpace=wrap;connectable=0;fillColor=none;top=0;left=0;bottom=0;right=0;overflow=hidden;pointerEvents=1;" parent="ISjqVNkL_cP0iht_eHrK-60" vertex="1">
          <mxGeometry width="40" height="30" as="geometry" />
        </mxCell>
        <mxCell id="ISjqVNkL_cP0iht_eHrK-62" value="Store Product (PK)" style="shape=partialRectangle;html=1;whiteSpace=wrap;connectable=0;fillColor=none;top=0;left=0;bottom=0;right=0;align=left;spacingLeft=6;overflow=hidden;pointerEvents=1;" parent="ISjqVNkL_cP0iht_eHrK-60" vertex="1">
          <mxGeometry x="40" width="140" height="30" as="geometry" />
        </mxCell>
        <mxCell id="ISjqVNkL_cP0iht_eHrK-63" value="" style="shape=partialRectangle;html=1;whiteSpace=wrap;collapsible=0;dropTarget=0;pointerEvents=1;fillColor=none;top=0;left=0;bottom=0;right=0;points=[[0,0.5],[1,0.5]];portConstraint=eastwest;" parent="ISjqVNkL_cP0iht_eHrK-59" vertex="1">
          <mxGeometry y="60" width="180" height="30" as="geometry" />
        </mxCell>
        <mxCell id="ISjqVNkL_cP0iht_eHrK-64" value="2" style="shape=partialRectangle;html=1;whiteSpace=wrap;connectable=0;fillColor=none;top=0;left=0;bottom=0;right=0;overflow=hidden;pointerEvents=1;" parent="ISjqVNkL_cP0iht_eHrK-63" vertex="1">
          <mxGeometry width="40" height="30" as="geometry" />
        </mxCell>
        <mxCell id="ISjqVNkL_cP0iht_eHrK-65" value="Product Name" style="shape=partialRectangle;html=1;whiteSpace=wrap;connectable=0;fillColor=none;top=0;left=0;bottom=0;right=0;align=left;spacingLeft=6;overflow=hidden;pointerEvents=1;" parent="ISjqVNkL_cP0iht_eHrK-63" vertex="1">
          <mxGeometry x="40" width="140" height="30" as="geometry" />
        </mxCell>
        <mxCell id="ISjqVNkL_cP0iht_eHrK-66" value="" style="shape=partialRectangle;html=1;whiteSpace=wrap;collapsible=0;dropTarget=0;pointerEvents=1;fillColor=none;top=0;left=0;bottom=0;right=0;points=[[0,0.5],[1,0.5]];portConstraint=eastwest;" parent="ISjqVNkL_cP0iht_eHrK-59" vertex="1">
          <mxGeometry y="90" width="180" height="30" as="geometry" />
        </mxCell>
        <mxCell id="ISjqVNkL_cP0iht_eHrK-67" value="3" style="shape=partialRectangle;html=1;whiteSpace=wrap;connectable=0;fillColor=none;top=0;left=0;bottom=0;right=0;overflow=hidden;pointerEvents=1;" parent="ISjqVNkL_cP0iht_eHrK-66" vertex="1">
          <mxGeometry width="40" height="30" as="geometry" />
        </mxCell>
        <mxCell id="ISjqVNkL_cP0iht_eHrK-68" value="Product sub category" style="shape=partialRectangle;html=1;whiteSpace=wrap;connectable=0;fillColor=none;top=0;left=0;bottom=0;right=0;align=left;spacingLeft=6;overflow=hidden;pointerEvents=1;" parent="ISjqVNkL_cP0iht_eHrK-66" vertex="1">
          <mxGeometry x="40" width="140" height="30" as="geometry" />
        </mxCell>
        <mxCell id="ISjqVNkL_cP0iht_eHrK-69" value="" style="edgeStyle=segmentEdgeStyle;endArrow=classic;html=1;fontColor=#1D3557;strokeColor=#457B9D;fillColor=#A8DADC;exitX=1.021;exitY=0.027;exitDx=0;exitDy=0;exitPerimeter=0;" parent="1" source="ISjqVNkL_cP0iht_eHrK-46" edge="1">
          <mxGeometry width="50" height="50" relative="1" as="geometry">
            <mxPoint x="-1410" y="450" as="sourcePoint" />
            <mxPoint x="-1200" y="310" as="targetPoint" />
            <Array as="points">
              <mxPoint x="-1200" y="451" />
            </Array>
          </mxGeometry>
        </mxCell>
        <mxCell id="ISjqVNkL_cP0iht_eHrK-70" value="" style="edgeStyle=segmentEdgeStyle;endArrow=classic;html=1;fontColor=#1D3557;strokeColor=#457B9D;fillColor=#A8DADC;entryX=0.25;entryY=0;entryDx=0;entryDy=0;" parent="1" target="ISjqVNkL_cP0iht_eHrK-1" edge="1">
          <mxGeometry width="50" height="50" relative="1" as="geometry">
            <mxPoint x="-1450" y="70" as="sourcePoint" />
            <mxPoint x="-1230" y="70" as="targetPoint" />
            <Array as="points">
              <mxPoint x="-1245" y="70" />
            </Array>
          </mxGeometry>
        </mxCell>
        <mxCell id="ISjqVNkL_cP0iht_eHrK-71" value="" style="edgeStyle=segmentEdgeStyle;endArrow=classic;html=1;fontColor=#1D3557;strokeColor=#457B9D;fillColor=#A8DADC;entryX=0.691;entryY=-0.004;entryDx=0;entryDy=0;entryPerimeter=0;" parent="1" target="ISjqVNkL_cP0iht_eHrK-1" edge="1">
          <mxGeometry width="50" height="50" relative="1" as="geometry">
            <mxPoint x="-900" y="80" as="sourcePoint" />
            <mxPoint x="-1120" y="40" as="targetPoint" />
            <Array as="points">
              <mxPoint x="-900" y="70" />
              <mxPoint x="-1130" y="70" />
            </Array>
          </mxGeometry>
        </mxCell>
        <mxCell id="ISjqVNkL_cP0iht_eHrK-72" value="" style="edgeStyle=segmentEdgeStyle;endArrow=classic;html=1;fontColor=#1D3557;strokeColor=#457B9D;fillColor=#A8DADC;exitX=-0.013;exitY=0.827;exitDx=0;exitDy=0;exitPerimeter=0;" parent="1" source="ISjqVNkL_cP0iht_eHrK-56" edge="1">
          <mxGeometry width="50" height="50" relative="1" as="geometry">
            <mxPoint x="-980" y="455" as="sourcePoint" />
            <mxPoint x="-1120" y="310" as="targetPoint" />
            <Array as="points">
              <mxPoint x="-1120" y="455" />
            </Array>
          </mxGeometry>
        </mxCell>
        <mxCell id="ISjqVNkL_cP0iht_eHrK-73" value="Store Zipcode" style="shape=partialRectangle;html=1;whiteSpace=wrap;connectable=0;fillColor=none;top=0;left=0;bottom=0;right=0;align=left;spacingLeft=6;overflow=hidden;pointerEvents=1;" parent="1" vertex="1">
          <mxGeometry x="-1590" y="130" width="140" height="30" as="geometry" />
        </mxCell>
        <mxCell id="ISjqVNkL_cP0iht_eHrK-74" value="Store Country" style="shape=partialRectangle;html=1;whiteSpace=wrap;connectable=0;fillColor=none;top=0;left=0;bottom=0;right=0;align=left;spacingLeft=6;overflow=hidden;pointerEvents=1;" parent="1" vertex="1">
          <mxGeometry x="-1590" y="160" width="140" height="30" as="geometry" />
        </mxCell>
        <mxCell id="ISjqVNkL_cP0iht_eHrK-75" value="Latitude/Longitude" style="shape=partialRectangle;html=1;whiteSpace=wrap;connectable=0;fillColor=none;top=0;left=0;bottom=0;right=0;align=left;spacingLeft=6;overflow=hidden;pointerEvents=1;" parent="1" vertex="1">
          <mxGeometry x="-1590" y="190" width="140" height="30" as="geometry" />
        </mxCell>
        <mxCell id="ISjqVNkL_cP0iht_eHrK-77" value="Product Brand" style="shape=partialRectangle;html=1;whiteSpace=wrap;connectable=0;fillColor=none;top=0;left=0;bottom=0;right=0;align=left;spacingLeft=6;overflow=hidden;pointerEvents=1;" parent="1" vertex="1">
          <mxGeometry x="-860" y="140" width="140" height="30" as="geometry" />
        </mxCell>
        <mxCell id="ISjqVNkL_cP0iht_eHrK-78" value="Product Category" style="shape=partialRectangle;html=1;whiteSpace=wrap;connectable=0;fillColor=none;top=0;left=0;bottom=0;right=0;align=left;spacingLeft=6;overflow=hidden;pointerEvents=1;" parent="1" vertex="1">
          <mxGeometry x="-860" y="170" width="140" height="30" as="geometry" />
        </mxCell>
        <mxCell id="ISjqVNkL_cP0iht_eHrK-79" value="Store Phone No." style="shape=partialRectangle;html=1;whiteSpace=wrap;connectable=0;fillColor=none;top=0;left=0;bottom=0;right=0;align=left;spacingLeft=6;overflow=hidden;pointerEvents=1;" parent="1" vertex="1">
          <mxGeometry x="-1590" y="220" width="140" height="30" as="geometry" />
        </mxCell>
        <mxCell id="ISjqVNkL_cP0iht_eHrK-80" value="Strain THC max" style="shape=partialRectangle;html=1;whiteSpace=wrap;connectable=0;fillColor=none;top=0;left=0;bottom=0;right=0;align=left;spacingLeft=6;overflow=hidden;pointerEvents=1;" parent="1" vertex="1">
          <mxGeometry x="-840" y="460" width="140" height="30" as="geometry" />
        </mxCell>
        <mxCell id="ISjqVNkL_cP0iht_eHrK-81" value="Strain CBD min" style="shape=partialRectangle;html=1;whiteSpace=wrap;connectable=0;fillColor=none;top=0;left=0;bottom=0;right=0;align=left;spacingLeft=6;overflow=hidden;pointerEvents=1;" parent="1" vertex="1">
          <mxGeometry x="-840" y="490" width="140" height="30" as="geometry" />
        </mxCell>
        <mxCell id="ISjqVNkL_cP0iht_eHrK-82" value="Strain max" style="shape=partialRectangle;html=1;whiteSpace=wrap;connectable=0;fillColor=none;top=0;left=0;bottom=0;right=0;align=left;spacingLeft=6;overflow=hidden;pointerEvents=1;" parent="1" vertex="1">
          <mxGeometry x="-840" y="520" width="140" height="30" as="geometry" />
        </mxCell>
        <mxCell id="pClZBczDajn1f3OKHseC-1" value="4" style="shape=partialRectangle;html=1;whiteSpace=wrap;connectable=0;fillColor=none;top=0;left=0;bottom=0;right=0;overflow=hidden;pointerEvents=1;" vertex="1" parent="1">
          <mxGeometry x="-880" y="460" width="40" height="30" as="geometry" />
        </mxCell>
        <mxCell id="pClZBczDajn1f3OKHseC-2" value="5" style="shape=partialRectangle;html=1;whiteSpace=wrap;connectable=0;fillColor=none;top=0;left=0;bottom=0;right=0;overflow=hidden;pointerEvents=1;" vertex="1" parent="1">
          <mxGeometry x="-880" y="490" width="40" height="30" as="geometry" />
        </mxCell>
        <mxCell id="pClZBczDajn1f3OKHseC-3" value="6" style="shape=partialRectangle;html=1;whiteSpace=wrap;connectable=0;fillColor=none;top=0;left=0;bottom=0;right=0;overflow=hidden;pointerEvents=1;" vertex="1" parent="1">
          <mxGeometry x="-880" y="520" width="40" height="30" as="geometry" />
        </mxCell>
        <mxCell id="pClZBczDajn1f3OKHseC-4" value="4" style="shape=partialRectangle;html=1;whiteSpace=wrap;connectable=0;fillColor=none;top=0;left=0;bottom=0;right=0;overflow=hidden;pointerEvents=1;" vertex="1" parent="1">
          <mxGeometry x="-900" y="140" width="40" height="30" as="geometry" />
        </mxCell>
        <mxCell id="pClZBczDajn1f3OKHseC-5" value="5" style="shape=partialRectangle;html=1;whiteSpace=wrap;connectable=0;fillColor=none;top=0;left=0;bottom=0;right=0;overflow=hidden;pointerEvents=1;" vertex="1" parent="1">
          <mxGeometry x="-900" y="170" width="40" height="30" as="geometry" />
        </mxCell>
        <mxCell id="pClZBczDajn1f3OKHseC-6" value="4" style="shape=partialRectangle;html=1;whiteSpace=wrap;connectable=0;fillColor=none;top=0;left=0;bottom=0;right=0;overflow=hidden;pointerEvents=1;" vertex="1" parent="1">
          <mxGeometry x="-1630" y="130" width="40" height="30" as="geometry" />
        </mxCell>
        <mxCell id="pClZBczDajn1f3OKHseC-7" value="5" style="shape=partialRectangle;html=1;whiteSpace=wrap;connectable=0;fillColor=none;top=0;left=0;bottom=0;right=0;overflow=hidden;pointerEvents=1;" vertex="1" parent="1">
          <mxGeometry x="-1630" y="160" width="40" height="30" as="geometry" />
        </mxCell>
        <mxCell id="pClZBczDajn1f3OKHseC-8" value="6" style="shape=partialRectangle;html=1;whiteSpace=wrap;connectable=0;fillColor=none;top=0;left=0;bottom=0;right=0;overflow=hidden;pointerEvents=1;" vertex="1" parent="1">
          <mxGeometry x="-1630" y="190" width="40" height="30" as="geometry" />
        </mxCell>
        <mxCell id="pClZBczDajn1f3OKHseC-9" value="7" style="shape=partialRectangle;html=1;whiteSpace=wrap;connectable=0;fillColor=none;top=0;left=0;bottom=0;right=0;overflow=hidden;pointerEvents=1;" vertex="1" parent="1">
          <mxGeometry x="-1630" y="220" width="40" height="30" as="geometry" />
        </mxCell>
      </root>
    </mxGraphModel>
  </diagram>
</mxfile>
